# xmcd
#
# Track frame offsets: 
#        150
#        27996
#        50721
#        67501
#        86275
#        106969
#        119293
#        138014
#        151678
#        173923
#
# Disc length: 2568 seconds
#
# Revision: 0
# Processed by: cddbd v1.5.2PL0 Copyright (c) Steve Scherf et al.
# Submitted via: ExactAudioCopy v0.99pb5
#
DISCID=6f0a060a
DTITLE=Jarrett Fenlon - Blues and Soul
DYEAR=2006
DGENRE=Blues
TTITLE0=Love Makes Me Cry
TTITLE1=Maui
TTITLE2=Hey Lady
TTITLE3=Working Man Blues
TTITLE4=When We Are Young
TTITLE5=Old Crow Blues
TTITLE6=Love You For Awhile
TTITLE7=La La La
TTITLE8=I'm Not The Man You Need
TTITLE9=You Lied
EXTD=
EXTT0=
EXTT1=
EXTT2=
EXTT3=
EXTT4=
EXTT5=
EXTT6=
EXTT7=
EXTT8=
EXTT9=
PLAYORDER=
